<?xml version="1.0" encoding="UTF-8"?>
<svg version="1.1" xmlns="http://www.w3.org/2000/svg" width="1024" height="1024">
<path d="M0 0 C337.92 0 675.84 0 1024 0 C1024 337.92 1024 675.84 1024 1024 C686.08 1024 348.16 1024 0 1024 C0 686.08 0 348.16 0 0 Z " fill="#FAFEFE" transform="translate(0,0)"/>
<path d="M0 0 C6.9461321 3.84440015 12.35697704 9.84299444 17.46599579 15.83301544 C22.76414001 22.0416414 28.5214304 27.77328846 34.30273438 33.52539062 C35.42562352 34.64635694 36.5482825 35.76755385 37.67073059 36.88896179 C40.07444679 39.28953444 42.47970328 41.6885489 44.88618469 44.08634949 C48.69720634 47.88376556 52.50433652 51.68506733 56.31091309 55.48693848 C64.39180806 63.55676753 72.4769295 71.622356 80.5625 79.6875 C89.29371923 88.39666163 98.02419404 97.10656183 106.74978304 105.82136488 C110.52812332 109.59474554 114.30888279 113.36567978 118.09156036 117.13471222 C120.45017283 119.48582622 122.80667647 121.83904538 125.1626339 124.1928196 C126.24889732 125.2772229 127.33601879 126.36076754 128.42409706 127.44334984 C133.66465325 132.6582835 138.83635185 137.88805353 143.6262455 143.52639198 C146.00548138 146.27811029 148.58775641 148.81763159 151.1796875 151.3671875 C151.99362473 152.17544479 151.99362473 152.17544479 152.82400513 153.00003052 C154.52603964 154.69002849 156.23133664 156.37667116 157.9375 158.0625 C160.20859613 160.30702621 162.47636175 162.55484251 164.7421875 164.8046875 C165.26191132 165.31611298 165.78163513 165.82753845 166.31710815 166.35446167 C170.88577975 170.89155147 170.88577975 170.89155147 171.4375 174.9375 C170.92391393 179.38857931 169.26693094 181.12239214 166.0625 184.1875 C161.1958298 186.32024665 156.8888034 186.43477296 151.6875 186.3125 C150.95144531 186.30347656 150.21539062 186.29445313 149.45703125 186.28515625 C147.6587112 186.26180144 145.86056089 186.22593836 144.0625 186.1875 C144.06618717 187.2338754 144.06987434 188.2802508 144.07367325 189.35833454 C144.16254233 214.84005859 144.22823666 240.32176251 144.26974869 265.80360889 C144.2903581 278.12653429 144.31844786 290.44935719 144.36425781 302.7722168 C144.40417503 313.51506883 144.42994459 324.25784661 144.43885398 335.00077075 C144.44406041 340.68704241 144.45626391 346.37310171 144.48542023 352.05930519 C144.51266636 357.41662205 144.52092637 362.77364002 144.51493073 368.13101959 C144.51602685 370.09212305 144.52392563 372.05323699 144.5393219 374.01428032 C144.63668357 387.06054007 144.50601934 398.57257228 134.91015625 408.53515625 C126.72182269 415.85791544 116.90278812 416.48895 106.3734436 416.45492554 C105.33220915 416.45945665 104.2909747 416.46398776 103.21818769 416.46865618 C99.74778896 416.48126246 96.27754792 416.47968225 92.80712891 416.47802734 C90.31136372 416.48401486 87.81560039 416.49082092 85.31983948 416.49838257 C79.25537769 416.51419452 73.19097731 416.52048985 67.12650062 416.52160732 C62.19450042 416.52255994 57.26251298 416.52668087 52.33051682 416.53300858 C38.32833622 416.55060606 24.3261862 416.55984955 10.32399447 416.55834763 C9.57028919 416.55826772 8.8165839 416.5581878 8.04003906 416.55810547 C6.9080913 416.55798283 6.9080913 416.55798283 5.75327592 416.55785771 C-6.47667493 416.55704479 -18.70650263 416.57618786 -30.93641786 416.6043822 C-43.51267268 416.63314489 -56.08886748 416.6469207 -68.66515601 416.64519465 C-75.71835578 416.64453201 -82.77142637 416.64996899 -89.82459641 416.67155075 C-96.45832547 416.69172017 -103.09182885 416.69105439 -109.72558784 416.67651749 C-112.15594062 416.67442898 -114.58631047 416.67913272 -117.01663399 416.6912384 C-120.34289964 416.70672996 -123.66823005 416.69735604 -126.99447632 416.68197632 C-127.9484878 416.69226344 -128.90249928 416.70255057 -129.8854202 416.71314943 C-139.45284369 416.61587374 -148.18531483 413.93701075 -155.21484375 407.25390625 C-160.67273161 400.70691605 -163.06838013 393.53348375 -163.05102539 385.13378906 C-163.05094986 383.91282532 -163.05087433 382.69186157 -163.05079651 381.43389893 C-163.04563522 380.12024353 -163.04047394 378.80658813 -163.03515625 377.453125 C-163.03329021 376.0912074 -163.03186718 374.72928912 -163.03086853 373.36737061 C-163.02705803 369.79008111 -163.01724032 366.21283248 -163.00616455 362.63555908 C-162.99591884 358.98230543 -162.99136415 355.32904514 -162.98632812 351.67578125 C-162.97561669 344.51300224 -162.95855794 337.35025686 -162.9375 330.1875 C-164.04063034 329.89895645 -164.04063034 329.89895645 -165.16604614 329.60458374 C-166.62903641 329.21516098 -166.62903641 329.21516098 -168.12158203 328.81787109 C-169.08387726 328.56363373 -170.04617249 328.30939636 -171.03762817 328.04745483 C-175.50352677 326.72309593 -179.62464791 324.83139938 -183.8125 322.8125 C-184.6271875 322.43867187 -185.441875 322.06484375 -186.28125 321.6796875 C-191.46324508 319.21528593 -196.41136124 316.69221689 -198.8203125 311.16015625 C-198.90023437 310.52980469 -198.98015625 309.89945313 -199.0625 309.25 C-199.16820312 308.62222656 -199.27390625 307.99445313 -199.3828125 307.34765625 C-198.6467835 303.77726996 -196.70308362 301.42238403 -193.9375 299.1875 C-190.95670967 297.89155091 -187.92401738 297.22609331 -184.75 296.5625 C-183.04831942 296.16508989 -181.34777525 295.76278045 -179.6484375 295.35546875 C-178.83600586 295.16259277 -178.02357422 294.9697168 -177.18652344 294.77099609 C-173.52323592 293.82057738 -170.10300343 292.4210191 -166.65234375 290.88671875 C-164.9375 290.1875 -164.9375 290.1875 -162.9375 290.1875 C-162.9375 255.8675 -162.9375 221.5475 -162.9375 186.1875 C-168.5475 186.1875 -174.1575 186.1875 -179.9375 186.1875 C-187.66826923 183.61057692 -187.66826923 183.61057692 -190.9375 179.1875 C-191.70574707 175.28224408 -192.0744578 172.89251983 -189.83467102 169.53366089 C-183.35381387 162.3942378 -176.49764777 155.62339591 -169.66796875 148.8203125 C-168.21996119 147.37422649 -166.7721829 145.92791088 -165.32461548 144.48138428 C-162.21862658 141.37854521 -159.11109362 138.27726398 -156.00234985 135.17718506 C-151.08238155 130.27078928 -146.16627447 125.36053677 -141.25073242 120.44970703 C-129.92930675 109.14030229 -118.60286689 97.83592362 -107.27638245 86.53158569 C-96.89162544 76.16703029 -86.50793982 65.80140749 -76.12830448 55.43172264 C-71.24605934 50.55444701 -66.36138923 45.67961728 -61.474823 40.80667114 C-58.43117364 37.77050343 -55.38961753 34.73224531 -52.34861374 31.69342804 C-50.94306168 30.28974119 -49.53664884 28.88691564 -48.12929153 27.48503876 C-38.88610853 18.3335634 -38.88610853 18.3335634 -30.2089386 8.65136719 C-28.43345446 6.60716861 -26.46422636 4.94781203 -24.3125 3.3125 C-23.59835937 2.75820313 -22.88421875 2.20390625 -22.1484375 1.6328125 C-15.16552787 -2.93198708 -7.6170968 -3.34764127 0 0 Z " fill="#012762" transform="translate(281.9375,273.8125)"/>
<path d="M0 0 C2.86990243 1.41929696 4.63903052 2.93610654 6.8927002 5.20147705 C7.69703491 6.00281067 8.50136963 6.80414429 9.33007812 7.62976074 C10.18541138 8.4974408 11.04074463 9.36512085 11.92199707 10.25909424 C12.81310181 11.15207214 13.70420654 12.04505005 14.62231445 12.96508789 C16.50528394 14.85477667 18.38521369 16.74696379 20.26037598 18.64434814 C22.65076099 21.0629329 25.04965858 23.47283597 27.45194244 25.87959671 C29.75761794 28.19045922 32.05859803 30.50597718 34.35949707 32.82159424 C35.21483032 33.68117737 36.07016357 34.5407605 36.95141602 35.4263916 C41.05778605 39.58181103 44.96036515 43.77059346 48.64074707 48.30596924 C49.87876784 49.42665342 51.14482179 50.51835093 52.45324707 51.55596924 C54.28527832 53.00909424 54.28527832 53.00909424 55.64074707 54.30596924 C55.64074707 54.96596924 55.64074707 55.62596924 55.64074707 56.30596924 C56.23081543 56.5648291 56.82088379 56.82368896 57.42883301 57.09039307 C59.80924523 58.39856883 61.21483673 59.746954 63.03137207 61.75518799 C63.65914551 62.43903564 64.28691895 63.1228833 64.93371582 63.82745361 C65.57953613 64.54223877 66.22535645 65.25702393 66.89074707 65.99346924 C70.58227473 70.06622829 74.22512868 74.03395725 78.43762207 77.57550049 C81.74510076 80.3916954 84.63084152 83.42774615 87.52966309 86.66143799 C93.39700818 93.13478372 99.53278341 99.31503316 105.73033714 105.47072411 C107.6701789 107.39757313 109.6066775 109.3277303 111.54243469 111.25868225 C115.63485412 115.3398121 119.73127283 119.41691261 123.82824707 123.49346924 C128.61809799 128.25969334 133.4062827 133.02756833 138.19033241 137.79961586 C140.10066498 139.70345698 142.01397333 141.60427297 143.92741394 143.50498962 C145.0848522 144.65879971 146.24215273 145.81274797 147.39929199 146.96685791 C147.93370407 147.49610367 148.46811615 148.02534943 149.01872253 148.57063293 C150.24518472 149.7969152 151.44608439 151.04868695 152.64074707 152.30596924 C152.64074707 152.63596924 152.64074707 152.96596924 152.64074707 153.30596924 C152.04906738 153.46452393 151.4573877 153.62307861 150.84777832 153.78643799 C145.57723404 155.34266721 142.0948774 156.80513275 138.64074707 161.30596924 C136.61394793 166.11773186 136.35589813 170.57725983 136.38246155 175.72502136 C136.37694799 176.97486977 136.37694799 176.97486977 136.37132305 178.24996763 C136.36136504 181.03424124 136.36548947 183.81831426 136.36950684 186.6026001 C136.36511856 188.6019563 136.35981603 190.60131067 136.35366821 192.60066223 C136.34217564 196.90257319 136.33670934 201.20443495 136.33578682 205.50636101 C136.33384529 212.30960949 136.31578787 219.11275624 136.29502869 225.91596985 C136.24585306 242.81341765 136.21495013 259.71089305 136.19372559 276.60839844 C136.17720432 289.74186385 136.15439772 302.87524199 136.11070484 316.00864893 C136.08892473 322.77065517 136.08087098 329.53249566 136.08309758 336.29453456 C136.08143049 340.50243248 136.06737986 344.71022222 136.0498848 348.91808128 C136.0442871 350.86794498 136.04379839 352.81783112 136.0488224 354.76769638 C136.05496713 357.43202262 136.04272613 360.09566655 136.02601624 362.75993347 C136.03222805 363.52920432 136.03843987 364.29847516 136.04483992 365.09105724 C135.98656512 370.19949104 135.05478989 373.77568121 132.64074707 378.30596924 C127.96222434 382.08860463 124.19966709 383.43350485 118.28741455 383.42622375 C116.99180099 383.42828575 116.99180099 383.42828575 115.67001343 383.4303894 C114.7306192 383.42679413 113.79122498 383.42319885 112.82336426 383.41949463 C111.82791595 383.41964066 110.83246765 383.41978668 109.80685425 383.41993713 C106.51708801 383.41924056 103.22737842 383.41146004 99.93762207 383.40362549 C97.65647411 383.4017604 95.37532575 383.40033693 93.09417725 383.39933777 C87.09036147 383.39551972 81.08656989 383.38569548 75.08276367 383.37463379 C68.95626147 383.36440438 62.82975535 383.35983687 56.70324707 383.35479736 C44.68240311 383.3440726 32.6615771 383.32700469 20.64074707 383.30596924 C20.46946289 382.4839502 20.29817871 381.66193115 20.1217041 380.81500244 C19.48047144 377.74847283 18.835164 374.68283654 18.18713379 371.61773682 C17.90816793 370.29418444 17.63080082 368.970294 17.35510254 367.64605713 C16.95719133 365.73622699 16.55293847 363.82772165 16.14855957 361.91925049 C15.90766602 360.7723877 15.66677246 359.6255249 15.4185791 358.44390869 C14.73005211 355.33856649 14.73005211 355.33856649 13.54650879 352.64263916 C12.64074707 350.30596924 12.64074707 350.30596924 12.64074707 346.30596924 C14.91418457 344.66534424 14.91418457 344.66534424 18.01574707 343.05596924 C24.13696259 339.67924236 29.34302968 335.84565311 34.64074707 331.30596924 C35.87437988 330.29083252 35.87437988 330.29083252 37.13293457 329.25518799 C68.62172848 302.42595081 76.28639984 259.36148348 79.64074707 220.30596924 C79.84622986 217.18228555 80.00103173 214.05819139 80.14074707 210.93096924 C80.70968283 200.04604731 81.9991651 189.60900933 89.64074707 181.30596924 C93.91123012 177.58959809 98.53072784 175.95570752 103.89074707 174.30596924 C107.52595583 173.15849172 109.47237236 172.45138376 112.39074707 169.93096924 C114.22848222 166.07172542 114.17888403 163.18944858 113.01574707 159.11846924 C110.24532203 155.46654533 106.05729768 154.22188034 101.66027832 153.61065674 C100.25914935 153.45599517 98.85669822 153.31290658 97.45324707 153.18096924 C89.93443958 152.40386674 89.93443958 152.40386674 86.64074707 151.30596924 C85.57225949 148.84575415 84.67565198 146.46629217 83.82824707 143.93096924 C80.53395907 134.65252378 77.03547853 126.04822439 69.64074707 119.30596924 C69.64074707 118.64596924 69.64074707 117.98596924 69.64074707 117.30596924 C69.06453613 117.03526611 68.4883252 116.76456299 67.89465332 116.48565674 C65.62112314 115.29569813 63.65757144 113.93119205 61.57824707 112.43096924 C47.83020028 103.12144749 30.1197913 102.20774335 14.08117676 104.70440674 C0.91737341 107.66128697 -10.28575182 114.51770792 -20.35925293 123.30596924 C-20.96253418 123.81385986 -21.56581543 124.32175049 -22.18737793 124.84503174 C-32.41468089 134.16430313 -38.8551268 147.64607599 -44.75033569 159.94110107 C-50.94227604 172.82519102 -57.33813816 185.44451908 -65.35925293 197.30596924 C-65.97824463 198.22249268 -65.97824463 198.22249268 -66.60974121 199.15753174 C-69.42670567 203.28366589 -72.36611269 207.30657484 -75.35925293 211.30596924 C-75.97655273 212.14756592 -75.97655273 212.14756592 -76.60632324 213.00616455 C-92.16918014 234.16248822 -112.59933422 252.1752469 -135.35925293 265.30596924 C-136.01925293 265.30596924 -136.67925293 265.30596924 -137.35925293 265.30596924 C-137.36805229 263.46886635 -137.36805229 263.46886635 -137.37702942 261.59465027 C-137.43427822 250.04452806 -137.50705141 238.49459373 -137.59496784 226.94466305 C-137.63966763 221.00692544 -137.67892485 215.06925638 -137.70568848 209.13140869 C-137.73172501 203.39950623 -137.77213048 197.66786763 -137.82243919 191.93612862 C-137.83910543 189.7509445 -137.85062121 187.56571475 -137.85686684 185.380476 C-137.86651032 182.31621611 -137.89457351 179.25263091 -137.92687988 176.1885376 C-137.92472725 174.83770332 -137.92472725 174.83770332 -137.92253113 173.45957947 C-138.01866366 166.99901013 -138.8664264 161.87001939 -143.54675293 157.05596924 C-147.04800322 154.8774135 -150.45484898 153.629496 -154.35925293 152.30596924 C-149.74679629 146.76756557 -144.83499195 141.65057389 -139.72351074 136.5725708 C-138.87728653 135.72780685 -138.03106232 134.88304291 -137.15919495 134.01268005 C-134.85750453 131.71576295 -132.5536395 129.42105358 -130.24892139 127.12717533 C-127.83076869 124.71905916 -125.41589835 122.30765652 -123.00079346 119.89648438 C-116.87325111 113.77999773 -110.74146419 107.66777441 -104.60925293 101.55596924 C-97.97380891 94.94256977 -91.33911612 88.3284265 -84.70927501 81.70940948 C-82.30750945 79.31180728 -79.90467052 76.91530088 -77.49936676 74.52124786 C-74.82317109 71.85696968 -72.14998437 69.18970656 -69.47741699 66.52178955 C-68.28207085 65.33419289 -68.28207085 65.33419289 -67.06257629 64.12260437 C-65.97341164 63.03354546 -65.97341164 63.03354546 -64.86224365 61.92248535 C-64.23031223 61.29277454 -63.59838081 60.66306374 -62.94729996 60.01427078 C-61.1657407 58.18929082 -61.1657407 58.18929082 -59.35925293 55.30596924 C-58.69925293 55.30596924 -58.03925293 55.30596924 -57.35925293 55.30596924 C-57.12984009 54.75156662 -56.90042725 54.197164 -56.6640625 53.6259613 C-54.99206339 50.65309479 -52.89727553 48.5972291 -50.4822998 46.18609619 C-49.98778824 45.68968628 -49.49327667 45.19327637 -48.98377991 44.68182373 C-47.35336163 43.04771061 -45.71587228 41.42089265 -44.07800293 39.79425049 C-42.94185539 38.65929539 -41.80607763 37.52397001 -40.6706543 36.38829041 C-38.29307962 34.01227826 -35.91218719 31.63965943 -33.52868652 29.26959229 C-30.47015202 26.22807625 -27.41827067 23.17998981 -24.3686142 20.12957478 C-22.0252408 17.78647293 -19.6792731 15.44598357 -17.33241272 13.10637474 C-16.20585644 11.9830049 -15.07990856 10.8590246 -13.95457458 9.73443031 C-12.38428552 8.16630341 -10.81075152 6.6015102 -9.23620605 5.03765869 C-8.34067017 4.1459346 -7.44513428 3.25421051 -6.52246094 2.33546448 C-3.07038789 -0.90322814 -3.07038789 -0.90322814 0 0 Z " fill="#FA5C74" transform="translate(273.3592529296875,289.69403076171875)"/>
<path d="M0 0 C11.81980607 11.33500934 15.72987541 26.66914787 16.375 42.60546875 C16.34187451 48.89268665 14.90771937 53.14916012 12.3046875 58.7890625 C7.90950901 69.32959534 7.70133336 81.04933616 7 92.29296875 C4.77701209 127.87660531 -3.88832458 163.43478571 -30.875 188.66796875 C-49.01459201 204.35173907 -70.72642468 211.50081682 -94 214.91796875 C-95.258125 215.10875 -96.51625 215.29953125 -97.8125 215.49609375 C-126.66346643 218.94424787 -158.82919166 209.16786631 -182 191.91796875 C-182.495 190.92796875 -182.495 190.92796875 -183 189.91796875 C-181.39898437 189.9336792 -181.39898437 189.9336792 -179.765625 189.94970703 C-175.72497037 189.98648929 -171.68432979 190.00907611 -167.64355469 190.02783203 C-165.90980524 190.0377593 -164.17607193 190.05130556 -162.44238281 190.06884766 C-125.79287363 190.42982196 -89.17336002 181.78806784 -62.3125 155.54296875 C-50.48053001 143.39525799 -38.4081007 124.37052899 -37.5 106.91796875 C-37.66491106 103.98680768 -37.98632983 102.94038783 -39.5625 100.35546875 C-42.95518126 98.35465673 -45.12714161 98.36470327 -49 98.91796875 C-52.76369807 101.84605679 -53.61720726 104.30170065 -54.4375 108.91796875 C-56.90154211 120.63527536 -61.51901955 129.60990269 -69 138.91796875 C-69.5671875 139.63855469 -70.134375 140.35914063 -70.71875 141.1015625 C-87.73720525 161.69228783 -116.08751575 171.38325292 -142 173.91796875 C-144.53908684 174.0160762 -147.08015616 174.07099742 -149.62109375 174.0859375 C-150.66727371 174.09242561 -150.66727371 174.09242561 -151.73458862 174.0990448 C-153.96896336 174.10906616 -156.20310753 174.10924493 -158.4375 174.10546875 C-159.20210541 174.10419983 -159.96671082 174.10293091 -160.75448608 174.10162354 C-179.68066395 174.04153964 -195.90699496 171.58219033 -214 165.91796875 C-211.83019528 163.51298135 -209.91027718 162.2505657 -206.9296875 161.0078125 C-206.12418457 160.66306885 -205.31868164 160.3183252 -204.48876953 159.96313477 C-203.62622559 159.59760498 -202.76368164 159.2320752 -201.875 158.85546875 C-182.08823897 150.19139035 -164.67682259 138.4085685 -148.47119141 124.20117188 C-147.12221087 123.02456356 -145.75528489 121.86861251 -144.38671875 120.71484375 C-137.11836139 114.45501444 -131.04836362 107.32844686 -125 99.91796875 C-124.566875 99.39219238 -124.13375 98.86641602 -123.6875 98.32470703 C-108.54671978 79.81865184 -96.83837886 58.44871252 -86.75 36.85546875 C-81.24241086 25.09648313 -75.1433341 15.24252208 -66 5.91796875 C-65.45988281 5.35335938 -64.91976562 4.78875 -64.36328125 4.20703125 C-47.21698024 -12.11866594 -18.51875559 -15.50945781 0 0 Z " fill="#00B0FE" transform="translate(330,419.08203125)"/>
<path d="M0 0 C7.59 0 15.18 0 23 0 C22.67 1.98 22.34 3.96 22 6 C21.90607895 8.81483406 21.85807211 11.60468418 21.86196899 14.41905212 C21.85773707 15.66890053 21.85773707 15.66890053 21.85341966 16.9439984 C21.84510523 19.72821873 21.84373814 22.51239914 21.84228516 25.29663086 C21.83761472 27.29598604 21.83247078 29.29534015 21.82688904 31.29469299 C21.81562405 35.59659157 21.80718227 39.89848327 21.80076981 44.20039177 C21.79007725 51.00362087 21.76983007 57.80680047 21.74765015 64.61000061 C21.68576468 83.95441425 21.63168957 103.29882455 21.59863281 122.64331055 C21.58029123 133.32981513 21.55136427 144.01623637 21.5106281 154.70267969 C21.4895568 160.35624533 21.47410057 166.00970594 21.47182083 171.66331291 C21.46967441 176.97967449 21.45380543 182.29581714 21.42743111 187.61211205 C21.42023749 189.56197147 21.41813744 191.51185741 21.42153358 193.46172714 C21.42543262 196.12606497 21.41095997 198.78970502 21.39199829 201.45396423 C21.39752799 202.22323508 21.40305768 202.99250592 21.40875494 203.785088 C21.3461291 208.89194771 20.41283027 212.47083967 18 217 C13.32147727 220.7826354 9.55892001 222.12753562 3.64666748 222.12025452 C2.78292511 222.12162918 1.91918274 222.12300385 1.02926636 222.12442017 C0.08987213 222.12082489 -0.84952209 222.11722961 -1.81738281 222.11352539 C-2.81283112 222.11367142 -3.80827942 222.11381744 -4.83389282 222.1139679 C-8.12365906 222.11327132 -11.41336865 222.1054908 -14.703125 222.09765625 C-16.98427296 222.09579117 -19.26542132 222.09436769 -21.54656982 222.09336853 C-27.5503856 222.08955048 -33.55417718 222.07972624 -39.5579834 222.06866455 C-45.6844856 222.05843515 -51.81099172 222.05386763 -57.9375 222.04882812 C-69.95834396 222.03810336 -81.97916997 222.02103545 -94 222 C-94.17128418 221.17798096 -94.34256836 220.35596191 -94.51904297 219.5090332 C-95.16027563 216.44250359 -95.80558307 213.3768673 -96.45361328 210.31176758 C-96.73257914 208.9882152 -97.00994625 207.66432476 -97.28564453 206.34008789 C-97.68355574 204.43025776 -98.0878086 202.52175241 -98.4921875 200.61328125 C-98.73308105 199.46641846 -98.97397461 198.31955566 -99.22216797 197.13793945 C-99.91069496 194.03259725 -99.91069496 194.03259725 -101.09423828 191.33666992 C-102 189 -102 189 -102 185 C-99.7265625 183.359375 -99.7265625 183.359375 -96.625 181.75 C-90.50378448 178.37327313 -85.29771739 174.53968388 -80 170 C-79.17757813 169.32324219 -78.35515625 168.64648438 -77.5078125 167.94921875 C-46.01901859 141.11998157 -38.35434723 98.05551424 -35 59 C-34.79451721 55.87631632 -34.63971534 52.75222215 -34.5 49.625 C-33.93106424 38.74007807 -32.64158197 28.30304009 -25 20 C-20.72951695 16.28362885 -16.11001923 14.64973828 -10.75 13 C-7.11673505 11.8545823 -5.19911488 11.17596198 -2.3125 8.625 C-0.62703175 5.5757199 -0.62703175 5.5757199 0 0 Z " fill="#F9FEFE" transform="translate(388,451)"/>
<path d="M0 0 C59.57978723 0 59.57978723 0 72 11.25 C77.98592481 17.81991748 80.33711605 27.10455387 80.140625 35.83203125 C79.58994045 44.32175132 76.95246449 49.83038552 71 56 C68.0625 58.0625 68.0625 58.0625 66 59 C66.59167969 59.31453125 67.18335938 59.6290625 67.79296875 59.953125 C77.17360614 65.03366597 83.68785908 70.51155376 87 81 C89.24857191 91.11857361 88.02746977 101.11273491 82.875 110.1875 C77.60828031 117.86681883 70.70773532 122.94052543 62 126 C41.65611203 129.69888872 20.67741656 128 0 128 C0 85.76 0 43.52 0 0 Z " fill="#002761" transform="translate(460,490)"/>
<path d="M0 0 C7.59 0 15.18 0 23 0 C23.33 15.51 23.66 31.02 24 47 C26.97 45.02 29.94 43.04 33 41 C42.91973008 36.9784878 53.84037894 36.22657135 64.0625 39.75 C73.57308033 43.80391993 81.28294965 50.24178369 85.375 59.9375 C91.15139627 76.60214764 90.42882169 94.28515119 83.25 110.4375 C77.20864057 120.963407 68.49050116 126.93519473 56.9375 130.375 C46.83495306 131.97857888 37.35978991 131.53480672 28.75390625 125.3984375 C27.10825503 124.00112399 25.54359541 122.50929329 24 121 C23.67 123.31 23.34 125.62 23 128 C15.41 128 7.82 128 0 128 C0 85.76 0 43.52 0 0 Z " fill="#022A64" transform="translate(666,490)"/>
<path d="M0 0 C7.26 0 14.52 0 22 0 C22.33 15.51 22.66 31.02 23 47 C25.64 45.02 28.28 43.04 31 41 C39.79924718 36.60037641 51.95440891 36.635367 61.3125 39.125 C70.85094429 42.48691069 78.69609585 48.81284793 83.47265625 57.7578125 C90.53317988 73.52562912 90.6690648 90.01638673 85.2265625 106.31640625 C80.80228878 116.36234887 72.07739142 124.17835579 62.03125 128.18359375 C49.05528297 132.64794431 38.35443386 131.83997872 26 126 C24.09765625 124.33203125 24.09765625 124.33203125 23 123 C22.67 124.65 22.34 126.3 22 128 C14.74 128 7.48 128 0 128 C0 85.76 0 43.52 0 0 Z " fill="#012862" transform="translate(863,490)"/>
<path d="M0 0 C30.69 0 61.38 0 93 0 C86.26017952 20.21946144 73.18156397 38.45624657 60 55 C59.38125 55.82371094 58.7625 56.64742188 58.125 57.49609375 C43.81573538 76.27700356 24.41085981 92.22450396 4 104 C3.34 104 2.68 104 2 104 C1.9845388 102.15623528 1.9845388 102.15623528 1.96876526 100.27522278 C1.87103695 88.69512448 1.76830331 77.11507998 1.66066074 65.53506947 C1.60548094 59.58158519 1.55206877 53.62809595 1.50268555 47.67456055 C1.45496919 41.92979869 1.40262366 36.18509601 1.34705925 30.44040489 C1.32666866 28.24796712 1.30795018 26.05551314 1.29092598 23.86304665 C1.26680906 20.79381069 1.23676434 17.72468601 1.20532227 14.65551758 C1.1995668 13.74777084 1.19381134 12.84002411 1.18788147 11.9047699 C1.17809265 11.06489532 1.16830383 10.22502075 1.15821838 9.35969543 C1.15176583 8.63424436 1.14531328 7.90879328 1.1386652 7.16135883 C1.0163808 4.50586435 1.0163808 4.50586435 0 0 Z " fill="#F9FDFE" transform="translate(134,451)"/>
<path d="M0 0 C7.93952778 5.43620652 10.97757964 12.17576163 13.1703186 21.32946777 C14.23791131 27.29996623 14.14782036 33.21360544 14.07421875 39.26171875 C14.06860611 40.61219811 14.06434393 41.96268367 14.06135559 43.31317139 C14.05003765 46.8247438 14.02068768 50.33592903 13.98724365 53.84735107 C13.95625676 57.44765998 13.94278987 61.04803297 13.92773438 64.6484375 C13.89580152 71.68116082 13.84314492 78.71356086 13.78125 85.74609375 C6.85125 85.74609375 -0.07875 85.74609375 -7.21875 85.74609375 C-7.23333252 84.25352051 -7.24791504 82.76094727 -7.26293945 81.22314453 C-7.32120147 75.65048052 -7.39843228 70.07820881 -7.48120117 64.50585938 C-7.51431964 62.10065103 -7.54239167 59.69536741 -7.56518555 57.29003906 C-7.59897241 53.81933716 -7.65130095 50.34931702 -7.70703125 46.87890625 C-7.71342117 45.81495636 -7.7198111 44.75100647 -7.72639465 43.65481567 C-7.85918158 36.81022565 -8.01987768 28.55776986 -12.63471985 23.05886841 C-17.12479878 19.16052609 -21.14176924 18.3794965 -26.87109375 18.47265625 C-30.66104691 18.91408174 -33.37290123 20.21809303 -36.21875 22.74609375 C-40.32485249 28.01288782 -41.31090688 33.4802682 -41.42407227 39.99536133 C-41.44401749 41.01604202 -41.46396271 42.03672272 -41.48451233 43.08833313 C-41.50958107 44.72296761 -41.50958107 44.72296761 -41.53515625 46.390625 C-41.55593735 47.51554855 -41.57671844 48.64047211 -41.59812927 49.79948425 C-41.66340792 53.38579315 -41.72240899 56.97217402 -41.78125 60.55859375 C-41.82445583 62.99284592 -41.86807078 65.42709087 -41.91210938 67.86132812 C-42.01983537 73.82284403 -42.11907058 79.78441615 -42.21875 85.74609375 C-49.80875 85.74609375 -57.39875 85.74609375 -65.21875 85.74609375 C-65.21875 56.70609375 -65.21875 27.66609375 -65.21875 -2.25390625 C-57.95875 -2.25390625 -50.69875 -2.25390625 -43.21875 -2.25390625 C-42.88875 0.05609375 -42.55875 2.36609375 -42.21875 4.74609375 C-41.49429688 4.26398437 -40.76984375 3.781875 -40.0234375 3.28515625 C-39.05664062 2.65351562 -38.08984375 2.021875 -37.09375 1.37109375 C-36.14242187 0.74460937 -35.19109375 0.118125 -34.2109375 -0.52734375 C-23.77614063 -6.54846675 -10.41076865 -5.88355059 0 0 Z " fill="#002760" transform="translate(832.21875,532.25390625)"/>
<path d="M0 0 C1 1 1 1 1.11352539 3.59204102 C1.10828857 4.71795654 1.10305176 5.84387207 1.09765625 7.00390625 C1.09443359 8.21884766 1.09121094 9.43378906 1.08789062 10.68554688 C1.07532227 12.60463867 1.07532227 12.60463867 1.0625 14.5625 C1.05798828 15.84576172 1.05347656 17.12902344 1.04882812 18.45117188 C1.03699545 21.63416022 1.02051068 24.81705762 1 28 C-0.00160156 27.90460937 -1.00320313 27.80921875 -2.03515625 27.7109375 C-3.37754819 27.59828923 -4.71999957 27.48634782 -6.0625 27.375 C-7.37347656 27.25898437 -8.68445313 27.14296875 -10.03515625 27.0234375 C-14.12478709 26.99926234 -17.14740136 27.68907904 -21 29 C-21.99 29.33 -22.98 29.66 -24 30 C-24 30.66 -24 31.32 -24 32 C-24.66 32 -25.32 32 -26 32 C-26.68346682 33.65984798 -27.34588315 35.32836805 -28 37 C-28.34466309 37.82516113 -28.68932617 38.65032227 -29.04443359 39.50048828 C-30.35711594 44.30784362 -30.35656537 48.90403702 -30.4140625 53.8671875 C-30.43342865 54.90191193 -30.4527948 55.93663635 -30.4727478 57.00271606 C-30.53231842 60.29339467 -30.57883905 63.58410868 -30.625 66.875 C-30.66320048 69.11199405 -30.70225341 71.34897372 -30.7421875 73.5859375 C-30.83959897 79.05721498 -30.91934725 84.52834731 -31 90 C-38.92 90 -46.84 90 -55 90 C-55 60.96 -55 31.92 -55 2 C-47.41 2 -39.82 2 -32 2 C-31.67 6.29 -31.34 10.58 -31 15 C-30.01 13.783125 -29.02 12.56625 -28 11.3125 C-20.25268337 2.50518834 -11.56183639 -0.6085177 0 0 Z " fill="#012862" transform="translate(656,528)"/>
<path d="M0 0 C0.6997998 0.45238037 1.39959961 0.90476074 2.12060547 1.37084961 C26.99076677 17.34129072 52.29720494 26.08188019 82 28 C81.35706295 31.10477385 80.71015082 34.2087063 80.0625 37.3125 C79.88009766 38.19357422 79.69769531 39.07464844 79.50976562 39.98242188 C79.33251953 40.82998047 79.15527344 41.67753906 78.97265625 42.55078125 C78.81031494 43.33106689 78.64797363 44.11135254 78.48071289 44.9152832 C78 47 78 47 77 50 C68.6459797 50.06967257 60.29208188 50.12289843 51.93784237 50.15543652 C48.05814754 50.17105735 44.17865227 50.19222949 40.29907227 50.22631836 C36.55135208 50.25904056 32.80382322 50.27687994 29.05597115 50.28463173 C27.62989861 50.29015227 26.20383593 50.30093244 24.77784538 50.31719017 C10.78419731 50.47031049 10.78419731 50.47031049 5 47 C0.60188239 42.60188239 0.06083581 39.12428195 -0.11352539 33.03588867 C-0.11336836 31.49657295 -0.10779593 29.95725108 -0.09765625 28.41796875 C-0.09553383 27.19670036 -0.09553383 27.19670036 -0.09336853 25.95075989 C-0.08779317 23.36296844 -0.07524524 20.77526508 -0.0625 18.1875 C-0.05748181 16.42773563 -0.05291946 14.66796989 -0.04882812 12.90820312 C-0.03783181 8.60543506 -0.02058421 4.30273244 0 0 Z " fill="#F6FBFD" transform="translate(136,623)"/>
<path d="M0 0 C7.26 0 14.52 0 22 0 C22 29.04 22 58.08 22 88 C14.74 88 7.48 88 0 88 C0 58.96 0 29.92 0 0 Z " fill="#022A65" transform="translate(561,530)"/>
<path d="M0 0 C5.12303106 3.07553202 8.83008857 8.65273873 10.3359375 14.40234375 C12.09523079 22.86894271 11.30234318 31.24013498 6.9375 38.8359375 C2.97322364 44.31951775 -0.98615735 47.73286746 -7.6640625 49.40234375 C-13.53462284 49.87577604 -18.52643626 49.47464424 -23.6640625 46.40234375 C-29.42616051 41.38931848 -33.03928594 35.67334598 -33.94140625 28.0625 C-34.27037917 19.73290575 -32.82295593 11.54408133 -27.4765625 4.96484375 C-19.33545194 -3.36440172 -10.5716975 -4.57022615 0 0 Z " fill="#F8FCFE" transform="translate(917.6640625,551.59765625)"/>
<path d="M0 0 C5.59716032 4.00303238 9.54781114 9.50624031 10.8515625 16.32421875 C11.78857038 25.63183041 11.58660272 33.63437785 5.8515625 41.32421875 C1.21772507 46.38027371 -3.1116964 49.07932027 -10.0234375 49.63671875 C-17.02857894 49.4260378 -22.22886779 46.13446469 -27.1484375 41.32421875 C-33.23336438 32.87508461 -32.68684876 23.27485649 -32.1484375 13.32421875 C-31.34824804 8.72651998 -29.72499803 5.92759605 -26.4609375 2.51171875 C-18.09648396 -3.01197698 -9.12397624 -5.17994667 0 0 Z " fill="#F8FDFE" transform="translate(721.1484375,551.67578125)"/>
<path d="M0 0 C25.63913761 -0.51278275 25.63913761 -0.51278275 33.4375 5.3125 C37.34488224 9.41048626 39.14462176 12.78363415 39.375 18.4375 C39.15303094 24.17974302 37.39637614 28.33944459 33.6875 32.75 C28.00935051 37.50379958 22.4328275 39.14472792 15.13671875 39.09765625 C13.93728638 39.09390991 13.93728638 39.09390991 12.71362305 39.09008789 C11.71500244 39.08098389 10.71638184 39.07187988 9.6875 39.0625 C4.8921875 39.0315625 4.8921875 39.0315625 0 39 C0 26.13 0 13.26 0 0 Z " fill="#F7FCFE" transform="translate(484,560)"/>
<path d="M0 0 C0.82264326 3.14326778 1.63119072 6.29000621 2.4375 9.4375 C2.66759766 10.31599609 2.89769531 11.19449219 3.13476562 12.09960938 C3.35712891 12.97294922 3.57949219 13.84628906 3.80859375 14.74609375 C4.01282959 15.53685303 4.21706543 16.3276123 4.42749023 17.14233398 C5.21072129 21.05180926 5.5596918 25.03722616 6 29 C-9.51 29 -25.02 29 -41 29 C-37.89260563 10.3556338 -37.89260563 10.3556338 -37 8 C-33.51777138 5.67851426 -30.72300055 5.4973173 -26.6875 5.125 C-19.77574852 4.39337199 -13.5255239 2.91859715 -6.890625 0.8046875 C-4 0 -4 0 0 0 Z " fill="#F4FAFD" transform="translate(271,644)"/>
<path d="M0 0 C21.38461538 0 21.38461538 0 27.9375 5.4375 C31.55921563 9.93720729 32.39957771 13.11766218 32.25 18.8203125 C31.76368588 23.06036371 29.74113709 25.25886291 26.8125 28.1875 C18.41085517 33.60189333 10.09231998 32 0 32 C0 21.44 0 10.88 0 0 Z " fill="#F7FCFD" transform="translate(484,510)"/>
<path d="M0 0 C3.3170383 2.61128547 5.4091157 5.11277138 7 9 C7.24137178 13.49756077 6.55333627 17.10321363 4.1875 20.9375 C0.23509278 24.66405537 -2.48801702 25.4022635 -8.0390625 25.2578125 C-12.20660842 24.70988814 -15.36858792 22.1576945 -18 19 C-19.36636296 14.90091112 -19.75758529 11.27646278 -19 7 C-17.06840182 3.6024006 -14.82819323 0.66007788 -11.07421875 -0.6953125 C-7.27405979 -1.25352794 -3.71289804 -0.97463574 0 0 Z " fill="#022660" transform="translate(579,491)"/>
<path d="M0 0 C3.66564517 1.87197025 5.67851201 4.03553603 7 8 C7.36795288 12.96736392 7.2446074 16.10647112 4 20 C-0.37576915 22.88402967 -3.80099864 23.64987517 -9 23 C-12.32710068 21.30506192 -14.38275694 19.93928292 -16.4375 16.8125 C-17.54057136 11.29714318 -17.07725505 6.75951657 -14.125 1.9375 C-9.49085552 -0.93566958 -5.30896144 -0.98717145 0 0 Z " fill="#002760" transform="translate(308,441)"/>
<path d="M0 0 C0.33 0 0.66 0 1 0 C1 29.04 1 58.08 1 88 C-5.93 88 -12.86 88 -20 88 C-19.67 59.29 -19.34 30.58 -19 1 C-18.67 1 -18.34 1 -18 1 C-18 29.05 -18 57.1 -18 86 C-12.39 86 -6.78 86 -1 86 C-1.00523682 83.43033447 -1.01047363 80.86066895 -1.01586914 78.21313477 C-1.0324045 69.74340761 -1.04347101 61.27367977 -1.05181217 52.80394077 C-1.05704113 47.66640434 -1.06413901 42.52888437 -1.07543945 37.39135742 C-1.08626787 32.4376859 -1.09227674 27.48403026 -1.09487724 22.53034782 C-1.09673157 20.63602384 -1.10035234 18.74170076 -1.10573006 16.8473835 C-1.11293989 14.20365614 -1.11399097 11.55999529 -1.11352539 8.91625977 C-1.11712067 8.12504227 -1.12071594 7.33382477 -1.12442017 6.51863098 C-1.11405216 1.11405216 -1.11405216 1.11405216 0 0 Z " fill="#032051" transform="translate(582,530)"/>
<path d="M0 0 C0 4.64518834 -2.89516504 6.75808998 -6 10 C-7.09901028 10.96748941 -8.21198803 11.91926476 -9.3359375 12.85766602 C-15.92405181 18.56997194 -21.9754136 24.85270924 -28.125 31.02734375 C-29.48098158 32.38519348 -30.8371864 33.74282033 -32.19360352 35.10023499 C-35.7401606 38.65058599 -39.28370261 42.20393117 -42.82659912 45.75793457 C-46.4515736 49.39319078 -50.07942749 53.02557099 -53.70703125 56.65820312 C-60.80748901 63.76934302 -67.90476097 70.8836533 -75 78 C-75 75 -75 75 -73.8286972 73.45955372 C-73.27562141 72.90924331 -72.72254562 72.3589329 -72.15270996 71.79194641 C-71.52164841 71.15676086 -70.89058685 70.52157532 -70.24040222 69.86714172 C-69.53909683 69.17662216 -68.83779144 68.4861026 -68.11523438 67.7746582 C-67.01795769 66.6767244 -67.01795769 66.6767244 -65.89851379 65.55661011 C-63.47063345 63.13082544 -61.03228772 60.71584846 -58.59375 58.30078125 C-56.91157969 56.62420409 -55.23006902 54.94696485 -53.54919434 53.26908875 C-49.11699504 48.84836016 -44.67586126 44.43671303 -40.23284912 40.02685547 C-35.70322011 35.52787922 -31.18204044 31.02042995 -26.66015625 26.51367188 C-17.78171844 17.6674375 -8.89410877 8.83047701 0 0 Z " fill="#020E45" transform="translate(182,353)"/>
<path d="M0 0 C7.26 0 14.52 0 22 0 C21.67 15.84 21.34 31.68 21 48 C20.67 48 20.34 48 20 48 C20 32.82 20 17.64 20 2 C13.73 2 7.46 2 1 2 C0.67 1.34 0.34 0.68 0 0 Z " fill="#041853" transform="translate(667,490)"/>
<path d="M0 0 C0.99 0.33 1.98 0.66 3 1 C1.42617053 2.65492374 -0.15942902 4.29866024 -1.75 5.9375 C-2.63171875 6.85402344 -3.5134375 7.77054687 -4.421875 8.71484375 C-6.80176695 10.82429343 -7.9099375 11.66067071 -11 12 C-7.49102731 7.81576108 -3.91939465 3.80411834 0 0 Z " fill="#D55B73" transform="translate(227,332)"/>
<path d="M0 0 C0.33 0.66 0.66 1.32 1 2 C1.66 2 2.32 2 3 2 C3.83488387 8.32126362 4.45118943 14.64780958 5 21 C3.09260973 17.61645552 2.23265257 14.27713656 1.375 10.5 C1.11460937 9.3759375 0.85421875 8.251875 0.5859375 7.09375 C0 4 0 4 0 0 Z " fill="#031347" transform="translate(272,647)"/>
<path d="M0 0 C1 2 1 2 0.44140625 3.9453125 C0.15136719 4.66460937 -0.13867188 5.38390625 -0.4375 6.125 C-0.72496094 6.84945313 -1.01242188 7.57390625 -1.30859375 8.3203125 C-1.53675781 8.87460937 -1.76492187 9.42890625 -2 10 C-2.66 10 -3.32 10 -4 10 C-4.66 11.65 -5.32 13.3 -6 15 C-6.33 14.34 -6.66 13.68 -7 13 C-5.8203125 10.21484375 -5.8203125 10.21484375 -4.125 6.9375 C-3.57070312 5.85339844 -3.01640625 4.76929688 -2.4453125 3.65234375 C-1 1 -1 1 0 0 Z " fill="#03BAF7" transform="translate(243,458)"/>
<path d="M0 0 C4.01686987 -0.46707789 5.56501812 -0.32150834 8.875 2.125 C11.32150834 5.43498188 11.46707789 6.98313013 11 11 C10.34 10.67 9.68 10.34 9 10 C8.26924352 7.6859378 7.59861742 5.35171131 7 3 C4.69 2.67 2.38 2.34 0 2 C0 1.34 0 0.68 0 0 Z " fill="#011B4F" transform="translate(282,517)"/>
<path d="M0 0 C0 3 0 3 -2.4375 5.5 C-3.283125 6.325 -4.12875 7.15 -5 8 C-5.33 8.99 -5.66 9.98 -6 11 C-5.34 11 -4.68 11 -4 11 C-4.33 11.66 -4.66 12.32 -5 13 C-7.475 12.01 -7.475 12.01 -10 11 C-6.79239749 7.19364503 -3.59253891 3.45436433 0 0 Z " fill="#EF6477" transform="translate(129,431)"/>
<path d="M0 0 C0 3.61656862 -1.02130767 5.0319615 -3 8 C-3.66 8.66 -4.32 9.32 -5 10 C-6.32 9.67 -7.64 9.34 -9 9 C-6.03 6.03 -3.06 3.06 0 0 Z " fill="#00184B" transform="translate(205,330)"/>
<path d="M0 0 C1.5329854 3.0659708 0.96580649 6.11638602 0.83984375 9.4921875 C1.01037161 12.16240431 1.6472199 13.71884141 3 16 C0 15 0 15 -1.25 13 C-2.27999398 8.88002409 -1.84691873 5.14049159 -1 1 C-0.67 0.67 -0.34 0.34 0 0 Z " fill="#00174D" transform="translate(293,445)"/>
<path d="M0 0 C0.66 0 1.32 0 2 0 C0.73205555 3.80383334 -0.48165849 4.24082925 -4 6 C-6.625 6.8125 -6.625 6.8125 -9 7 C-9.99 6.34 -10.98 5.68 -12 5 C-11.30132812 4.80664062 -10.60265625 4.61328125 -9.8828125 4.4140625 C-8.97273438 4.15367187 -8.06265625 3.89328125 -7.125 3.625 C-6.22007812 3.36976563 -5.31515625 3.11453125 -4.3828125 2.8515625 C-1.85430274 2.1395685 -1.85430274 2.1395685 0 0 Z " fill="#182A5E" transform="translate(512,536)"/>
<path d="M0 0 C0.75 1.6875 0.75 1.6875 1 4 C-0.80447147 6.61337248 -2.7582981 8.7582981 -5 11 C-4.46884894 6.48521602 -2.63379708 3.65333143 0 0 Z " fill="#07174A" transform="translate(217,471)"/>
<path d="M0 0 C1.14926266 0.95421808 2.29430541 1.91352045 3.4375 2.875 C4.07558594 3.40867187 4.71367187 3.94234375 5.37109375 4.4921875 C7 6 7 6 8 8 C4.82461668 7.65978036 3.97723135 6.97533396 1.75 4.5625 C0 2 0 2 0 0 Z " fill="#E96377" transform="translate(418,435)"/>
<path d="M0 0 C0.99 0 1.98 0 3 0 C2.3125 1.9375 2.3125 1.9375 1 4 C-1.625 4.75 -1.625 4.75 -4 5 C-2.1875 2.5 -2.1875 2.5 0 0 Z " fill="#011C54" transform="translate(888,535)"/>
</svg>
