<?xml version="1.0" encoding="UTF-8"?>
<svg version="1.1" xmlns="http://www.w3.org/2000/svg" width="1024" height="1024">
<path d="M0 0 C337.92 0 675.84 0 1024 0 C1024 337.92 1024 675.84 1024 1024 C686.08 1024 348.16 1024 0 1024 C0 686.08 0 348.16 0 0 Z " fill="#FEFEFE" transform="translate(0,0)"/>
<path d="M0 0 C1.09441406 -0.02900391 1.09441406 -0.02900391 2.2109375 -0.05859375 C15.54732575 0.05839211 23.90799562 9.8307285 32.6003418 18.6418457 C33.93912973 19.98040662 35.27901431 21.31787146 36.61990356 22.65432739 C40.24053821 26.26927929 43.84553123 29.89946633 47.44770408 33.53280282 C51.23000422 37.34276029 55.02618969 41.1388344 58.820755 44.93656921 C65.18964969 51.31465303 71.54932271 57.70180788 77.90258789 64.09545898 C86.8466858 73.09636205 95.8079719 82.08000107 104.77244699 91.06060278 C110.99920215 97.29983789 117.22186275 103.54315622 123.44372964 109.78726554 C124.9474701 111.29635735 126.45131771 112.80534239 127.95527244 114.31422067 C132.24465274 118.61796401 136.53143082 122.92426737 140.81418228 127.2346077 C142.10853226 128.53663297 143.4036818 129.83786398 144.69971275 131.13821602 C150.41885685 136.87760253 156.09658047 142.60112856 161.36184978 148.76630878 C164.675732 152.52633256 168.28003773 156.00819219 171.84106445 159.53198242 C172.69718826 160.38343338 173.55331207 161.23488434 174.43537903 162.11213684 C176.7598642 164.42346799 179.08649955 166.73261171 181.41365457 169.04125381 C183.85777746 171.46782213 186.29777002 173.89853392 188.73783875 176.32917786 C197.03092797 184.58899017 205.32832531 192.84444195 213.63598633 201.08959961 C218.23675607 205.65583942 222.83214249 210.22742533 227.4216153 214.80502015 C229.84540755 217.22205161 232.27194962 219.63617402 234.70525551 222.0436306 C237.41236539 224.72433165 240.11011618 227.4141257 242.8059082 230.10620117 C243.61058533 230.89852142 244.41526245 231.69084167 245.24432373 232.50717163 C245.9774025 233.24292923 246.71048126 233.97868683 247.46577454 234.73674011 C248.10378148 235.37068286 248.74178843 236.00462561 249.39912891 236.65777874 C252.82955797 240.87324183 253.44796302 245.13911503 253.31640625 250.41015625 C252.81252617 253.93731678 251.32362195 255.98737508 249 258.625 C244.2008584 262.10437766 240.19294373 262.75368587 234.359375 262.72265625 C233.28945313 262.71943359 232.21953125 262.71621094 231.1171875 262.71289062 C230.00601562 262.70451172 228.89484375 262.69613281 227.75 262.6875 C226.06003906 262.68073242 226.06003906 262.68073242 224.3359375 262.67382812 C221.55723783 262.66205397 218.77864591 262.6456084 216 262.625 C216.00151888 263.22387443 216.00303776 263.82274886 216.00460267 264.439771 C216.09416671 299.95490013 216.16277235 335.47000978 216.20426132 370.98522841 C216.20926398 375.25211535 216.21444129 379.51900207 216.21972656 383.78588867 C216.2207758 384.63532847 216.22182505 385.48476826 216.22290608 386.35994866 C216.2402987 400.10362157 216.27183007 413.84722738 216.30861118 427.59086052 C216.34605246 441.69911427 216.36824259 455.80733294 216.37635398 469.91563433 C216.38183515 478.6172121 216.39913028 487.31860016 216.43166587 496.02011951 C216.45285313 501.99172574 216.45919054 507.96323428 216.45400551 513.93487535 C216.45145024 517.37729606 216.45529337 520.81938589 216.4768219 524.26174736 C216.49678589 528.00225951 216.49191467 531.74196655 216.48101807 535.48249817 C216.49266943 536.55937718 216.5043208 537.63625619 216.51632524 538.74576789 C216.4157695 551.55695913 211.38232415 561.94309896 202.8125 571.3125 C192.2095999 581.42169522 180.55232621 582.92600139 166.59648132 582.88569641 C165.11676157 582.88871865 163.63704338 582.89260849 162.15732795 582.89728898 C158.09925753 582.90756857 154.04127547 582.90538725 149.98319781 582.90110838 C145.60339253 582.89864107 141.22360852 582.90765543 136.84381104 582.91514587 C128.26612283 582.92789508 119.68846592 582.92968626 111.11076983 582.92734561 C104.13781103 582.92556242 97.16486173 582.92731213 90.19190407 582.93157005 C89.19938504 582.93216524 88.20686601 582.93276043 87.18427065 582.93337366 C85.1679357 582.93458541 83.15160075 582.93579955 81.1352658 582.93701603 C62.22564176 582.94789259 43.31603554 582.94572863 24.40641049 582.93963119 C7.11239714 582.93446284 -10.18155987 582.94571509 -27.47556207 582.96472941 C-45.23737222 582.98410818 -62.99915571 582.99236368 -80.76097649 582.98860615 C-90.73110984 582.98669405 -100.70119524 582.98918249 -110.67131996 583.00332069 C-119.15974999 583.015236 -127.64810256 583.01663774 -136.13653366 583.00453053 C-140.46586617 582.9986427 -144.79505704 582.99753972 -149.12438011 583.00953293 C-153.09140468 583.02039458 -157.05816937 583.01728509 -161.02518179 583.00327124 C-162.45650024 583.00062507 -163.88783906 583.00298836 -165.31913749 583.01100711 C-178.22293043 583.07825344 -187.28409521 580.78814065 -198 573.625 C-198.886875 573.0475 -199.77375 572.47 -200.6875 571.875 C-211.36748254 561.48366563 -214.3602427 549.18581162 -214.58572769 534.80650043 C-214.60616817 532.12481215 -214.60814611 529.44347878 -214.609375 526.76171875 C-214.62438563 524.87456362 -214.64111873 522.98742148 -214.65948486 521.10029602 C-214.7028473 516.17672055 -214.72308785 511.25332218 -214.73822021 506.32958984 C-214.75790444 501.28798076 -214.79986108 496.24655986 -214.83984375 491.20507812 C-214.91480819 481.34511058 -214.96530314 471.48518583 -215 461.625 C-215.5512001 461.40949493 -216.10240021 461.19398987 -216.67030334 460.97195435 C-237.08227599 452.96714947 -237.08227599 452.96714947 -245.4375 448.5 C-246.21158203 448.10941406 -246.98566406 447.71882813 -247.78320312 447.31640625 C-253.26747144 444.42598501 -257.16308026 441.29883949 -260 435.625 C-260.37168996 430.04965063 -260.22542715 426.40752991 -257 421.625 C-253.03537992 418.72973616 -248.97609155 417.76964878 -244.25 416.8125 C-236.41780832 415.11179062 -229.01997234 412.67432528 -221.51171875 409.89453125 C-218 408.625 -218 408.625 -214 407.625 C-214.33 360.105 -214.66 312.585 -215 263.625 C-222.92 263.295 -230.84 262.965 -239 262.625 C-248.84615385 258.93269231 -248.84615385 258.93269231 -252 252.625 C-252.23828125 250.453125 -252.23828125 250.453125 -252.3125 247.875 C-252.34988281 247.03453125 -252.38726562 246.1940625 -252.42578125 245.328125 C-251.39732673 238.79885412 -245.74060508 234.09162742 -241.23120117 229.64501953 C-240.55911118 228.97424377 -239.88702118 228.30346802 -239.19456482 227.61236572 C-236.98193713 225.40620401 -234.76241657 223.20711097 -232.54296875 221.0078125 C-230.99552735 219.46664802 -229.44860431 217.92496291 -227.9021759 216.38278198 C-223.83368947 212.32757854 -219.75967527 208.27797849 -215.684021 204.22998047 C-209.17083158 197.75994374 -202.66430446 191.28322575 -196.16112709 184.80312729 C-193.89751951 182.54967461 -191.6304911 180.29970695 -189.36308289 178.05007935 C-187.96093052 176.65476219 -186.55889119 175.25933143 -185.15698242 173.86376953 C-184.53388184 173.24740631 -183.91078125 172.63104309 -183.26879883 171.9960022 C-180.29873921 169.03353593 -177.44716555 166.02499508 -174.71504211 162.84103394 C-170.1996256 157.61989907 -165.29388791 152.79486225 -160.40234375 147.9296875 C-159.34841907 146.87768603 -158.29472482 145.82545367 -157.24124146 144.77301025 C-154.98649236 142.52140288 -152.7302041 140.2713538 -150.47268677 138.02252197 C-146.8968949 134.46034537 -143.32500338 130.89427458 -139.75366211 127.32763672 C-131.52845685 119.1144325 -123.29822912 110.90626724 -115.06794739 102.69815063 C-107.51971834 95.17014565 -99.97257574 87.64105975 -92.42948627 80.10790443 C-88.8853079 76.5686828 -85.33871206 73.03190773 -81.79019165 69.49703979 C-79.57688937 67.29124091 -77.36570047 65.08333252 -75.155056 62.8748703 C-74.13652065 61.85819358 -73.11712806 60.84237475 -72.09677505 59.82752228 C-67.03233383 54.78950603 -62.08822212 49.71662476 -57.43663979 44.29335594 C-55.68338914 42.25732286 -53.84734048 40.31899744 -51.9675293 38.3996582 C-51.25956711 37.67563309 -50.55160492 36.95160797 -49.82218933 36.2056427 C-46.62377207 32.96185104 -43.42273834 29.72076508 -40.21313477 26.48803711 C-38.52934355 24.78764399 -36.85094151 23.08189737 -35.17797852 21.37084961 C-32.73893457 18.87676984 -30.28359784 16.39979232 -27.82421875 13.92578125 C-27.08846115 13.16735428 -26.35270355 12.40892731 -25.59465027 11.6275177 C-18.20948701 4.27169294 -10.58961583 -0.28064353 0 0 Z " fill="#012C66" transform="translate(510,213.375)"/>
<path d="M0 0 C3.70645642 1.12761341 5.43151238 2.83570813 8.14904213 5.58761883 C8.63931892 6.07716549 9.12959572 6.56671215 9.63472939 7.07109356 C11.24596314 8.68579861 12.8387689 10.31747013 14.43200111 11.94992352 C15.55378087 13.08104 16.67667808 14.21104925 17.8006382 15.3399992 C20.75422595 18.3126469 23.69250753 21.2999848 26.6278019 24.29068279 C29.60626084 27.32013583 32.59875733 30.33564824 35.59020424 33.35226727 C40.86094661 38.67081183 46.11918057 44.00145017 51.36853981 49.34109783 C53.07853356 51.07413225 54.80014283 52.7957606 56.53147316 54.50747967 C58.86559486 56.87179852 58.86559486 56.87179852 61.36559486 59.93429852 C63.68786462 62.85749838 63.68786462 62.85749838 66.24059486 64.74679852 C68.49625996 66.57281312 70.13332899 68.26664759 71.99352455 70.46237469 C75.94852354 75.02921199 80.15897386 79.29165719 84.44371986 83.54757977 C85.27230507 84.3747047 86.10089027 85.20182964 86.95458412 86.05401897 C88.7414716 87.83712155 90.52951269 89.61906867 92.31859779 91.39996624 C95.15469507 94.22322168 97.98766717 97.04959115 100.81969643 99.87692547 C106.83201963 105.87820342 112.84857647 111.87522863 118.86559486 117.87179852 C125.36414605 124.34826473 131.86193539 130.8254848 138.3548336 137.30761909 C141.61373266 140.56078009 144.87651923 143.81001136 148.14000893 147.05856609 C149.85597814 148.77090062 151.57180589 150.48337691 153.28746986 152.19601727 C154.05546913 152.95885021 154.8234684 153.72168316 155.61474037 154.50763226 C159.67484794 158.56734402 163.5441348 162.72350874 167.29217148 167.07252979 C169.42282103 169.50900756 171.67916639 171.7976972 173.97472572 174.07858562 C174.66388573 174.76555523 174.66388573 174.76555523 175.36696815 175.46640301 C176.34681888 176.44249947 177.32782058 177.41744175 178.30991364 178.39128208 C179.86295028 179.93138314 181.41268988 181.47473768 182.96167946 183.0189085 C186.23931832 186.28522473 189.52092897 189.54753216 192.80309486 192.80929852 C196.63308096 196.61567359 200.46141697 200.42367941 204.2856102 204.23587513 C205.81480043 205.7585705 207.34696029 207.27823471 208.87925148 208.79780865 C209.79763298 209.71288692 210.71601448 210.6279652 211.66222572 211.57077312 C212.47606224 212.37937283 213.28989876 213.18797253 214.12839699 214.02107525 C215.86559486 215.87179852 215.86559486 215.87179852 215.86559486 216.87179852 C215.23653236 216.9581657 214.60746986 217.04453289 213.95934486 217.13351727 C206.3959661 218.37509601 200.99872532 220.73866806 195.55309486 226.18429852 C190.89851766 233.59714369 190.43668771 240.08126708 190.5072422 248.63093853 C190.50362205 250.38351045 190.50362205 250.38351045 190.49992877 252.17148787 C190.49613515 255.39702236 190.50566398 258.62219639 190.52080929 261.84768713 C190.53381923 265.33309587 190.52932887 268.81848627 190.52675819 272.30391216 C190.52442665 278.33883739 190.53233435 284.37367793 190.54660034 290.40858555 C190.56670873 299.14377228 190.5645812 307.87885174 190.55592928 316.61405236 C190.54192302 330.80047552 190.5368397 344.98688298 190.54162025 359.17331219 C190.54190001 360.02174321 190.54217976 360.87017422 190.54246799 361.74431527 C190.54685738 373.786166 190.56017332 385.82799057 190.57707874 397.86982942 C190.57826806 398.71795725 190.57945739 399.56608508 190.58068275 400.43991375 C190.58187635 401.28700407 190.58306994 402.13409439 190.58429971 403.00685411 C190.603614 417.14025706 190.59982288 431.27354205 190.57714778 445.40693957 C190.56409755 454.11834677 190.57046021 462.82931217 190.60193775 471.54067434 C190.62199173 477.51085009 190.62039865 483.48077216 190.60189375 489.45095199 C190.59193023 492.89331553 190.59169729 496.33495274 190.61782837 499.77724743 C190.64114784 503.51402321 190.62755446 507.24893564 190.60489845 510.98567486 C190.62053091 512.06681354 190.63616337 513.14795222 190.65226954 514.26185268 C190.55311957 521.63069237 188.74811832 526.31042646 183.86559486 531.87179852 C177.59794921 537.17774936 170.64481958 536.41322658 162.76037025 536.32590008 C161.3307848 536.32477057 159.90119704 536.32540747 158.47161293 536.3276701 C154.60624294 536.32881418 150.74137304 536.30535507 146.8761189 536.27737427 C142.83092448 536.2523092 138.78571763 536.2500146 134.74045753 536.24527264 C127.08718998 536.23285781 119.43415195 536.20005656 111.7809853 536.15987468 C103.06518088 536.11511036 94.34936529 536.09315823 85.63347447 536.07309294 C67.71071798 536.03132249 49.7881749 535.96099963 31.86559486 535.87179852 C31.75315784 535.1813227 31.64072081 534.49084688 31.52487659 533.77944756 C31.00916776 530.62188736 30.48953828 527.46498422 29.96984291 524.30807781 C29.79303741 523.22187901 29.61623192 522.1356802 29.43406868 521.01656628 C28.23516924 513.75636777 26.79743552 506.73592287 24.67809486 499.68429852 C24.16248991 497.89951213 23.64812047 496.11436825 23.13512611 494.32882977 C22.80411903 493.21471722 22.80411903 493.21471722 22.46642494 492.07809734 C21.81681285 489.69266684 21.3254601 487.3003033 20.86559486 484.87179852 C21.3480265 484.58570721 21.83045815 484.2996159 22.32750893 484.00485516 C36.24694796 475.71640174 49.04669974 467.04360438 60.86559486 455.87179852 C61.67641518 455.12543133 62.48723549 454.37906414 63.32262611 453.61007977 C100.956986 417.75372114 112.95508494 360.88732396 115.86559486 311.12179852 C118.3523364 268.81199671 118.3523364 268.81199671 134.99059486 252.68429852 C140.08002612 248.30601675 145.64010934 246.19190651 151.86559486 243.87179852 C154.29749259 242.79682923 156.71102348 241.6888435 159.12340736 240.57101727 C160.86559486 239.87179852 160.86559486 239.87179852 162.86559486 239.87179852 C164.95535991 234.95470429 165.44189138 230.95798195 163.86559486 225.87179852 C160.08932282 220.39011329 155.07497646 219.20731446 148.86559486 217.87179852 C145.19985103 217.21359697 141.52849063 216.5872728 137.84313393 216.04904461 C133.56482285 215.37668233 130.24543514 214.63877727 126.86559486 211.87179852 C124.6061308 208.07442417 123.15823787 204.0861798 121.67809486 199.93429852 C113.46377063 178.39014275 101.31768339 163.35946618 80.19371986 153.30929852 C57.89256182 143.67687344 28.98829517 145.37048951 6.62731361 154.14792156 C-27.45486714 168.52944371 -47.79351442 197.56598181 -63.98596764 229.41476727 C-76.2284887 253.48526533 -88.81522889 277.24874648 -105.13440514 298.87179852 C-105.59121666 299.48265301 -106.04802818 300.0935075 -106.51868248 300.72287273 C-113.19769752 309.60849607 -120.4319657 317.86299755 -128.13440514 325.87179852 C-128.60378502 326.36309246 -129.0731649 326.85438641 -129.55676842 327.36056805 C-136.01355541 334.08874364 -142.82196524 340.09657226 -150.13440514 345.87179852 C-150.94522545 346.53824383 -151.75604576 347.20468914 -152.59143639 347.89132977 C-161.64631031 355.30784201 -171.24555754 361.83387683 -181.25940514 367.87179852 C-181.89902184 368.25779217 -182.53863853 368.64378582 -183.19763756 369.04147625 C-185.82344064 370.60046976 -188.22752029 371.9028369 -191.13440514 372.87179852 C-191.13679349 372.1679578 -191.13918184 371.46411709 -191.14164257 370.73894787 C-191.20083703 353.59499684 -191.27641552 336.45119597 -191.37012005 319.3073988 C-191.41504223 311.01670384 -191.45446511 302.72605149 -191.48084068 294.43527508 C-191.50384979 287.20712062 -191.53728024 279.97910141 -191.5831067 272.75105429 C-191.60699978 268.92557471 -191.62575413 265.10022876 -191.63201904 261.27467632 C-191.63808773 257.66964777 -191.65815129 254.06496095 -191.68868065 250.46005917 C-191.70158717 248.51501987 -191.69989582 246.56990062 -191.69768333 244.62481976 C-191.79162577 235.84244692 -192.62156806 228.38463559 -199.13440514 221.87179852 C-204.79869884 217.82587444 -210.30227324 216.81075335 -217.13440514 215.87179852 C-212.38564965 210.15817866 -207.29494923 204.90217367 -202.0272274 199.66696453 C-200.65075214 198.29273081 -199.27427702 196.91849696 -197.897807 195.544258 C-196.42974122 194.07954548 -194.96043532 192.61608762 -193.4907608 191.15298939 C-190.41492018 188.09076897 -187.34298475 185.02465052 -184.27159691 181.9579649 C-177.19642082 174.89478903 -170.11623043 167.83664657 -163.03597069 160.77856731 C-156.54492258 154.30775355 -150.05496647 147.8358543 -143.56906742 141.35987896 C-140.52248361 138.31824549 -137.47348636 135.27905947 -134.42255032 132.24179184 C-132.97861602 130.80355443 -131.53585795 129.36414917 -130.09360313 127.92422771 C-128.3445239 126.17799123 -126.59367033 124.43352917 -124.84059715 122.6913023 C-121.35311445 119.2041334 -117.93648068 115.70611005 -114.72046471 111.96579266 C-110.23149489 106.75264039 -105.36501044 101.91387229 -100.52087975 97.03366375 C-99.46540314 95.96698703 -98.4100843 94.90015418 -97.3549099 93.83317852 C-93.91953661 90.36159352 -90.47879445 86.89536051 -87.03674889 83.43039227 C-86.44965118 82.83934869 -85.86255347 82.24830512 -85.25766492 81.63935113 C-79.71710886 76.06244563 -74.17407994 70.48800627 -68.62600422 64.91858101 C-61.54538867 57.81030215 -54.4767033 50.69058781 -47.42325014 43.55535263 C-42.45094838 38.5273615 -37.46539715 33.51275478 -32.46980292 28.5079065 C-29.48963976 25.52148 -26.51572761 22.52938671 -23.55598831 19.52270603 C-20.77785089 16.70104087 -17.98373797 13.89625805 -15.17635345 11.10369968 C-14.14873111 10.0757477 -13.12710167 9.04176485 -12.11197472 8.00147152 C-10.7272028 6.58419477 -9.31862054 5.19029851 -7.90892601 3.79780865 C-7.12711936 3.01084826 -6.34531271 2.22388788 -5.53981495 1.41308022 C-3.13440514 -0.12820148 -3.13440514 -0.12820148 0 0 Z " fill="#FE637B" transform="translate(511.1344051361084,236.12820148468018)"/>
<path d="M0 0 C14.53583758 11.49345297 21.36489147 29.07994361 24 47 C24.27883641 50.67239843 24.32539143 54.31820642 24.3125 58 C24.32861328 58.92039062 24.34472656 59.84078125 24.36132812 60.7890625 C24.36847076 70.93160555 20.91532964 79.47112275 17.28125 88.82421875 C13.26568876 100.94376866 12.4264289 113.37569625 11.72128296 126.02359009 C8.72110637 178.71956129 -3.21739716 229.36532092 -42.875 266.8125 C-76.82552246 296.00562441 -124.59411211 304.25075903 -168 302 C-183.45522666 300.64587736 -198.37758813 297.11102945 -213 292 C-214.01562012 291.64832764 -214.01562012 291.64832764 -215.05175781 291.28955078 C-230.1457339 285.9505183 -243.5414586 277.98099055 -256 268 C-253.03427257 267.10115581 -250.85756341 266.99565243 -247.80078125 267.42578125 C-240.28215097 268.27982724 -232.74394478 268.19922194 -225.1875 268.1875 C-224.01974533 268.18609512 -224.01974533 268.18609512 -222.82839966 268.18466187 C-173.79156957 268.05696343 -123.67871578 256.3731965 -87 222 C-85.08297978 220.01197903 -83.27750114 217.99855885 -81.52734375 215.86328125 C-80 214 -80 214 -78.37890625 212.29296875 C-65.97965945 199.14919443 -56.4584036 180.93161868 -52.4375 163.375 C-52.18444092 162.27406006 -52.18444092 162.27406006 -51.92626953 161.15087891 C-50.99068486 156.52392952 -50.93249486 152.67252251 -52 148 C-54.19025186 145.33063055 -55.74178658 144.17718157 -59.19140625 143.69140625 C-63.29577213 143.57645696 -66.49566841 143.66629642 -70 146 C-71.17117042 149.00430672 -72.10578878 151.9101434 -73 155 C-83.34234167 188.8336828 -103.26563829 211.10678784 -134.1875 227.75 C-151.32490596 236.63438794 -168.98911381 241.19373562 -188 244 C-188.73154297 244.11714355 -189.46308594 244.23428711 -190.21679688 244.35498047 C-226.3157176 250.05793203 -267.33364344 246.16206538 -301 232 C-298.9426186 229.9426186 -297.67470724 229.32367051 -295.01953125 228.2578125 C-293.78565674 227.75157349 -293.78565674 227.75157349 -292.52685547 227.23510742 C-291.63111816 226.86877197 -290.73538086 226.50243652 -289.8125 226.125 C-259.80463123 213.51837417 -230.6775173 196.50775921 -207 174 C-205.7349708 172.90989468 -204.4644229 171.82614886 -203.1875 170.75 C-193.21114928 162.04635246 -184.09588196 152.46740294 -176 142 C-175.01884588 140.770341 -174.03702907 139.54121058 -173.0546875 138.3125 C-156.18578102 116.99014025 -142.51526097 93.26350018 -130.46875 68.9375 C-130.07782166 68.1488858 -129.68689331 67.36027161 -129.28411865 66.54776001 C-127.35975164 62.65703709 -125.45143014 58.75952666 -123.56738281 54.84912109 C-116.76258912 40.85506953 -108.88911237 28.22939713 -98 17 C-97.401875 16.32839844 -96.80375 15.65679687 -96.1875 14.96484375 C-72.43348191 -10.78574051 -30.06763927 -19.08484887 0 0 Z " fill="#00B5FE" transform="translate(593,416)"/>
<path d="M0 0 C8.91 0 17.82 0 27 0 C26.34 2.64 25.68 5.28 25 8 C24.71344703 10.77886229 24.71344703 10.77886229 24.75504684 13.42581081 C24.75128155 14.43244005 24.74751625 15.43906928 24.74363685 16.47620243 C24.7496643 17.55957183 24.75569175 18.64294124 24.76190186 19.75914001 C24.76034285 20.9275213 24.75878384 22.09590258 24.75717759 23.29968935 C24.75474161 26.52514865 24.76116348 29.75044888 24.77128005 32.97588861 C24.77995714 36.46129734 24.77694359 39.94669737 24.77513123 43.43211365 C24.77332325 49.46701855 24.7781013 55.50188858 24.78673553 61.53678703 C24.79980429 71.07952517 24.79220391 80.62219569 24.78131104 90.16493225 C24.77783327 93.43297853 24.77448816 96.70102493 24.77118301 99.96907139 C24.77035168 100.78568089 24.76952034 101.60229039 24.76866381 102.44364564 C24.75948836 111.72960016 24.7545315 121.01555526 24.75146484 130.30151367 C24.75117909 131.14994469 24.75089335 131.99837571 24.75059894 132.87251676 C24.74649299 146.62671405 24.75772583 160.380868 24.77284035 174.13505559 C24.7878146 188.26846748 24.77982085 202.40174826 24.75222325 216.53514105 C24.73606765 225.24653204 24.73872623 233.95750971 24.76569638 242.66887582 C24.78260216 248.63906323 24.77772076 254.60898329 24.75581208 260.57915347 C24.74386643 264.02150726 24.74161495 267.46314271 24.76569176 270.90544891 C24.7867677 274.64224141 24.7709422 278.37714806 24.74603271 282.11387634 C24.76845822 283.73558437 24.76845822 283.73558437 24.79133677 285.39005417 C24.68770207 292.75761226 22.88133692 297.43914622 18 303 C11.73235435 308.30595085 4.77922472 307.54142806 -3.10522461 307.45410156 C-4.53481006 307.45297206 -5.96439783 307.45360895 -7.39398193 307.45587158 C-11.25935192 307.45701566 -15.12422183 307.43355656 -18.98947597 307.40557575 C-23.03467039 307.38051068 -27.07987723 307.37821609 -31.12513733 307.37347412 C-38.77840488 307.36105929 -46.43144292 307.32825804 -54.08460957 307.28807616 C-62.80041399 307.24331184 -71.51622957 307.22135972 -80.23212039 307.20129442 C-98.15487688 307.15952397 -116.07741996 307.08920112 -134 307 C-134.16865554 305.96428627 -134.16865554 305.96428627 -134.34071827 304.90764904 C-134.8564271 301.75008884 -135.37605659 298.59318571 -135.89575195 295.4362793 C-136.07255745 294.35008049 -136.24936295 293.26388168 -136.43152618 292.14476776 C-137.63042563 284.88456925 -139.06815935 277.86412435 -141.1875 270.8125 C-141.70310495 269.02771362 -142.2174744 267.24256974 -142.73046875 265.45703125 C-143.06147583 264.3429187 -143.06147583 264.3429187 -143.39916992 263.20629883 C-144.04878201 260.82086833 -144.54013477 258.42850479 -145 256 C-144.51756836 255.71390869 -144.03513672 255.42781738 -143.53808594 255.13305664 C-129.6186469 246.84460323 -116.81889513 238.17180586 -105 227 C-104.18917969 226.25363281 -103.37835937 225.50726562 -102.54296875 224.73828125 C-64.90860887 188.88192262 -52.91050992 132.01552545 -50 82.25 C-47.51325847 39.94019819 -47.51325847 39.94019819 -30.875 23.8125 C-25.78556875 19.43421823 -20.22548552 17.320108 -14 15 C-11.56810227 13.92503071 -9.15457138 12.81704498 -6.7421875 11.69921875 C-5 11 -5 11 -3 11 C-2.01 7.37 -1.02 3.74 0 0 Z " fill="#FDFEFE" transform="translate(677,465)"/>
<path d="M0 0 C42.24 0 84.48 0 128 0 C119.63307777 25.10076668 103.79700047 48.9464872 88 70 C87.54173828 70.61375488 87.08347656 71.22750977 86.61132812 71.85986328 C79.93372657 80.74202052 72.69989048 88.99384938 65 97 C64.53062012 97.49129395 64.06124023 97.98258789 63.57763672 98.48876953 C57.12084973 105.21694512 50.3124399 111.22477375 43 117 C42.18917969 117.66644531 41.37835938 118.33289063 40.54296875 119.01953125 C31.48809483 126.43604349 21.8888476 132.96207832 11.875 139 C10.91557495 139.57899048 10.91557495 139.57899048 9.93676758 140.16967773 C7.3109645 141.72867124 4.90688484 143.03103839 2 144 C1.99576806 143.2943157 1.99153612 142.5886314 1.98717594 141.86156273 C1.88383886 124.68499621 1.77519652 107.50847144 1.66066074 90.33197594 C1.60539969 82.02553062 1.55192948 73.719081 1.50268555 65.41259766 C1.45975641 58.17206527 1.4134566 50.93156361 1.36312145 43.69107878 C1.33659073 39.85786837 1.31173965 36.02466377 1.29092598 32.19141769 C1.27127214 28.58159012 1.24710283 24.97182063 1.21950912 21.36204529 C1.20574741 19.40944386 1.19673867 17.45681074 1.18788147 15.50418091 C1.17809265 14.33477966 1.16830383 13.16537842 1.15821838 11.96054077 C1.15176583 10.94841208 1.14531328 9.93628338 1.1386652 8.89348412 C1.03084335 5.46360019 1.03084335 5.46360019 0 0 Z " fill="#FDFEFE" transform="translate(318,465)"/>
<path d="M0 0 C1.43962434 0.95127059 2.87812928 1.90423539 4.31616211 2.85791016 C5.1173497 3.38840973 5.91853729 3.9189093 6.7440033 4.46548462 C9.45669017 6.3106379 12.00350669 8.32322891 14.5625 10.375 C21.55058656 15.65153744 29.03743744 19.4083511 37 23 C38.18207031 23.53496094 39.36414063 24.06992187 40.58203125 24.62109375 C64.29949828 34.68859629 89.58005532 38.30521436 115 41 C114.74605469 42.06476562 114.49210937 43.12953125 114.23046875 44.2265625 C113.88273348 45.69268959 113.53508186 47.15883653 113.1875 48.625 C113.02185547 49.31851563 112.85621094 50.01203125 112.68554688 50.7265625 C111.53772845 55.5777196 110.46812835 60.44265646 109.42700195 65.31787109 C109.15910355 66.57135345 108.89120514 67.82483582 108.6151886 69.11630249 C108.41217636 70.06792267 108.20916412 71.01954285 108 72 C95.84758329 72.06953218 83.69521396 72.12282775 71.54263878 72.15543652 C65.89961085 72.17108764 60.25671909 72.19231608 54.61376953 72.22631836 C49.16729012 72.25893115 43.72094163 72.27685718 38.2743721 72.28463173 C36.19715947 72.29017176 34.11995394 72.30099007 32.04279709 72.31719017 C29.13172712 72.3389897 26.22119715 72.34196584 23.31005859 72.34057617 C22.02396194 72.35675491 22.02396194 72.35675491 20.71188354 72.3732605 C14.90262836 72.34328305 10.63546279 71.37642158 6.171875 67.3515625 C5.46804688 66.49691406 5.46804688 66.49691406 4.75 65.625 C4.03070313 64.77808594 4.03070313 64.77808594 3.296875 63.9140625 C0.49889385 59.78451201 -0.248966 56.14183361 -0.22705078 51.19995117 C-0.22689972 50.05914597 -0.22674866 48.91834076 -0.22659302 47.7429657 C-0.21627045 46.52196671 -0.20594788 45.30096771 -0.1953125 44.04296875 C-0.1924826 42.78486893 -0.18965271 41.5267691 -0.18673706 40.23054504 C-0.17745121 36.89812618 -0.15950476 33.56598453 -0.1373291 30.23364258 C-0.11681017 26.82831203 -0.10772246 23.42295277 -0.09765625 20.01757812 C-0.0756164 13.34497582 -0.0421539 6.67250391 0 0 Z " fill="#FDFEFE" transform="translate(320,700)"/>
<path d="M0 0 C2.89841018 8.05377911 5.41684146 16.08857292 7.3125 24.4375 C7.48362305 25.16952637 7.65474609 25.90155273 7.83105469 26.65576172 C7.98606445 27.36619629 8.14107422 28.07663086 8.30078125 28.80859375 C8.50441284 29.73369751 8.50441284 29.73369751 8.7121582 30.67749023 C9.13552725 34.09352902 9 37.55782593 9 41 C-12.78 41 -34.56 41 -57 41 C-55.87439872 29.74398717 -55.87439872 29.74398717 -54.84375 25.71875 C-54.51697266 24.42710937 -54.51697266 24.42710937 -54.18359375 23.109375 C-53.84521484 21.81773437 -53.84521484 21.81773437 -53.5 20.5 C-53.27441406 19.60796875 -53.04882812 18.7159375 -52.81640625 17.796875 C-51.15576475 11.3115295 -51.15576475 11.3115295 -50 9 C-47.38647461 8.37744141 -47.38647461 8.37744141 -43.90234375 7.8515625 C-42.63245605 7.65264404 -41.36256836 7.45372559 -40.05419922 7.2487793 C-39.38096619 7.14689301 -38.70773315 7.04500671 -38.01409912 6.94003296 C-27.48480465 5.34267372 -17.10541706 3.56696525 -6.8359375 0.69921875 C-4 0 -4 0 0 0 Z " fill="#FDFDFE" transform="translate(510,731)"/>
<path d="M0 0 C3.88446678 2.58964452 6.69907021 5.64814041 8.8125 9.875 C9.57288689 16.69355126 9.0667913 21.42078038 4.8125 26.875 C0.01959653 30.61346471 -3.76334862 31.52843382 -9.82421875 31.26171875 C-14.66993368 30.46878358 -17.35737823 27.81730039 -20.5 24.25 C-23.80848774 19.59360985 -23.80832623 15.47968123 -23.1875 9.875 C-18.46722638 0.43445277 -10.02874722 -3.53955784 0 0 Z " fill="#002C5D" transform="translate(565.1875,452.125)"/>
<path d="M0 0 C3.9425255 1.59523825 6.59302432 4.31868845 9.5302124 7.28970337 C10.35000765 8.10693534 10.35000765 8.10693534 11.18636441 8.94067705 C13.01672504 10.76774306 14.83984509 12.60186625 16.66308594 14.43603516 C17.97357453 15.74708786 19.28450362 17.05770038 20.59584045 18.36790466 C24.15576769 21.92725741 27.70948913 25.49274874 31.26214504 29.05935717 C34.97549204 32.78519552 38.69449283 36.50538156 42.41290283 40.22616577 C49.45393653 47.27341893 56.4898559 54.32575543 63.52396131 61.37992322 C71.53205094 69.41035736 79.54581142 77.43512213 87.56005812 85.45941091 C104.0463656 101.96663093 120.52552308 118.48097346 137 135 C132.68381834 135 131.07210341 132.86729652 128 130 C128 129.34 128 128.68 128 128 C127.40247453 127.74008302 126.80494905 127.48016603 126.18931675 127.21237278 C123.83088939 125.90635202 122.66219546 124.68337098 120.97093201 122.60203552 C116.11996997 116.8792375 110.77831921 111.65457016 105.46508789 106.36743164 C104.31113709 105.21540336 103.15741623 104.06314472 102.00390625 102.91067505 C99.53469516 100.44460716 97.06394394 97.98009683 94.59196663 95.51680183 C90.68626532 91.62468218 86.78443445 87.72869774 82.88316345 83.83213806 C74.61257674 75.57261656 66.33774287 67.31735608 58.0625 59.0625 C49.10361295 50.12563718 40.14546818 41.18803746 31.19216341 32.24558157 C27.30983238 28.36824465 23.42507377 24.4933612 19.53846467 20.62031281 C17.13106266 18.22033769 14.72570514 15.8183217 12.32091522 13.41572952 C11.20106242 12.29775793 10.0803411 11.18065558 8.95871544 10.06446266 C7.43507828 8.54797761 5.9144939 7.02849776 4.39466858 5.50819397 C3.54096208 4.65670808 2.68725557 3.80522219 1.80767918 2.92793369 C0 1 0 1 0 0 Z " fill="#0C0F49" transform="translate(528,220)"/>
<path d="M0 0 C0 3 0 3 -1.20581055 4.54638672 C-2.03786011 5.35487061 -2.03786011 5.35487061 -2.88671875 6.1796875 C-3.8003418 7.07880859 -3.8003418 7.07880859 -4.73242188 7.99609375 C-5.37759766 8.61613281 -6.02277344 9.23617187 -6.6875 9.875 C-7.62625977 10.79345703 -7.62625977 10.79345703 -8.58398438 11.73046875 C-9.81615796 12.93554742 -11.05137917 14.13751872 -12.28979492 15.33618164 C-13.78173845 16.78765846 -15.25217803 18.26117356 -16.71875 19.73828125 C-18.68972631 21.69238277 -20.6919039 23.52454643 -22.8125 25.3125 C-23.41707031 25.82425781 -24.02164062 26.33601562 -24.64453125 26.86328125 C-25.09183594 27.23839844 -25.53914063 27.61351562 -26 28 C-26.66 27.67 -27.32 27.34 -28 27 C-24.57519169 23.47886896 -21.12112553 20.05522146 -17.375 16.875 C-11.24927366 11.60881234 -5.66912946 5.74690715 0 0 Z " fill="#02D6FC" transform="translate(407,570)"/>
<path d="M0 0 C0.5859375 1.91796875 0.5859375 1.91796875 1 4 C0.54625 4.433125 0.0925 4.86625 -0.375 5.3125 C-2.83507974 7.86719819 -2.67649714 10.57086971 -3 14 C-3.886875 14.2475 -4.77375 14.495 -5.6875 14.75 C-9.10427135 16.03934768 -11.2797748 17.59980129 -14 20 C-12.71403484 17.20363236 -11.32806763 15.07491234 -9.25 12.8125 C-5.72814531 8.82222128 -2.86275255 4.47685772 0 0 Z " fill="#01194B" transform="translate(507,600)"/>
<path d="M0 0 C3.3 0.33 6.6 0.66 10 1 C9.67 2.32 9.34 3.64 9 5 C12.96 7.64 16.92 10.28 21 13 C20.01 13.495 20.01 13.495 19 14 C12.33128031 10.48601134 5.74056532 5.90168615 0 1 C0 0.67 0 0.34 0 0 Z " fill="#02CBF3" transform="translate(337,683)"/>
<path d="M0 0 C2.31 0.33 4.62 0.66 7 1 C7 1.33 7 1.66 7 2 C5.12612523 2.3396019 3.25083303 2.67138691 1.375 3 C0.33085937 3.185625 -0.71328125 3.37125 -1.7890625 3.5625 C-4.90574865 3.98715797 -7.85930812 4.07545206 -11 4 C-11.66 6.64 -12.32 9.28 -13 12 C-14.0695227 7.72190919 -13.92965634 6.75775182 -12 3 C-9.47524538 1.73762269 -7.68799534 1.90143596 -4.875 1.9375 C-3.96492188 1.94652344 -3.05484375 1.95554687 -2.1171875 1.96484375 C-1.41851562 1.97644531 -0.71984375 1.98804688 0 2 C0 1.34 0 0.68 0 0 Z " fill="#040C42" transform="translate(471,736)"/>
<path d="M0 0 C-1.32 1.32 -2.64 2.64 -4 4 C-3.319375 4.12375 -2.63875 4.2475 -1.9375 4.375 C1.4277412 5.09100877 4.70013425 6.02945125 8 7 C4.16905403 8.45279835 1.65799654 7.5027187 -2.125 6.1875 C-3.17945313 5.83042969 -4.23390625 5.47335937 -5.3203125 5.10546875 C-8 4 -8 4 -10 2 C-3.375 -1.125 -3.375 -1.125 0 0 Z " fill="#02D6FA" transform="translate(302,645)"/>
<path d="M0 0 C1.13471754 3.40415262 0.77072847 5.53172191 0 9 C-0.24878906 10.17175781 -0.49757813 11.34351563 -0.75390625 12.55078125 C-1.02074219 13.79214844 -1.28757812 15.03351562 -1.5625 16.3125 C-1.83191406 17.56675781 -2.10132813 18.82101562 -2.37890625 20.11328125 C-2.68634766 21.54220703 -2.68634766 21.54220703 -3 23 C-3.33 23 -3.66 23 -4 23 C-4.44763271 15.39024398 -3.44359692 6.88719383 0 0 Z " fill="#02133D" transform="translate(610,504)"/>
<path d="M0 0 C0.99 0.33 1.98 0.66 3 1 C1.42617053 2.65492374 -0.15942902 4.29866024 -1.75 5.9375 C-2.63171875 6.85402344 -3.5134375 7.77054687 -4.421875 8.71484375 C-6.80176695 10.82429343 -7.9099375 11.66067071 -11 12 C-7.49102731 7.81576108 -3.91939465 3.80411834 0 0 Z " fill="#E5647C" transform="translate(408,336)"/>
<path d="M0 0 C1.13702419 3.33527097 0.88480118 5.08996202 -0.43359375 8.328125 C-0.75263672 9.12734375 -1.07167969 9.9265625 -1.40039062 10.75 C-1.74263672 11.575 -2.08488281 12.4 -2.4375 13.25 C-2.94506836 14.51070312 -2.94506836 14.51070312 -3.46289062 15.796875 C-4.29873438 17.86882572 -5.14466649 19.93603615 -6 22 C-7.17941154 18.46176538 -6.70960586 17.39921057 -5.5625 13.9375 C-4.38472342 10.53218076 -4.38472342 10.53218076 -4 7 C-3.34 6.67 -2.68 6.34 -2 6 C-1.27306096 4.02111039 -0.60183749 2.02045442 0 0 Z " fill="#01CAF1" transform="translate(592,611)"/>
<path d="M0 0 C4.44006916 3.61783413 6.98488028 8.71836201 9 14 C8.67 14.66 8.34 15.32 8 16 C6.0625 15.4375 6.0625 15.4375 4 14 C3.60539977 11.67624308 3.27769908 9.3406065 3 7 C1.52012037 4.25427272 1.52012037 4.25427272 0 2 C0 1.34 0 0.68 0 0 Z " fill="#04155B" transform="translate(621,413)"/>
<path d="M0 0 C0.825 0.28875 1.65 0.5775 2.5 0.875 C5.12183258 1.7177319 7.63758893 2.39272289 10.3125 3 C11.529375 3.33 12.74625 3.66 14 4 C14.33 4.66 14.66 5.32 15 6 C16.64363134 6.72159424 18.31050386 7.39351421 20 8 C15.66972837 9.44342388 12.82252082 7.4808816 8.875 5.6875 C7.76318359 5.20506836 7.76318359 5.20506836 6.62890625 4.71289062 C1.13323045 2.26646091 1.13323045 2.26646091 0 0 Z " fill="#0B1243" transform="translate(347,718)"/>
<path d="M0 0 C0 0.33 0 0.66 0 1 C-1.35544922 1.29003906 -1.35544922 1.29003906 -2.73828125 1.5859375 C-3.91777344 1.84632813 -5.09726562 2.10671875 -6.3125 2.375 C-7.48425781 2.63023437 -8.65601563 2.88546875 -9.86328125 3.1484375 C-13.12920445 3.85695531 -13.12920445 3.85695531 -16 6 C-18.32387947 6.39387788 -20.65793749 6.73486085 -23 7 C-19.76232231 4.24402557 -16.67613399 3.04483796 -12.625 1.8125 C-10.97371094 1.29623047 -10.97371094 1.29623047 -9.2890625 0.76953125 C-6.06242563 0.01460552 -3.29901173 -0.14451864 0 0 Z " fill="#090D53" transform="translate(538,385)"/>
<path d="M0 0 C0 3.36403475 -0.61880053 4.40092917 -2.375 7.1875 C-3.03628906 8.26064453 -3.03628906 8.26064453 -3.7109375 9.35546875 C-4.13632812 9.89816406 -4.56171875 10.44085937 -5 11 C-5.66 11 -6.32 11 -7 11 C-7.268125 11.61875 -7.53625 12.2375 -7.8125 12.875 C-9 15 -9 15 -12 17 C-10.25477062 12.94785821 -7.5771843 9.69396039 -4.875 6.25 C-4.40707031 5.64800781 -3.93914062 5.04601562 -3.45703125 4.42578125 C-2.30774993 2.94813384 -1.15428765 1.47373995 0 0 Z " fill="#050C3B" transform="translate(409,530)"/>
<path d="M0 0 C0.33 0 0.66 0 1 0 C1 2.31 1 4.62 1 7 C0.01 7 -0.98 7 -2 7 C-2.33 8.98 -2.66 10.96 -3 13 C-3.99 13.33 -4.98 13.66 -6 14 C-4.50829734 9.0276578 -2.39542583 4.58154261 0 0 Z " fill="#021340" transform="translate(586,631)"/>
<path d="M0 0 C0.33 0 0.66 0 1 0 C1.08107583 1.93681161 1.13922475 3.8745934 1.1875 5.8125 C1.23970703 7.43091797 1.23970703 7.43091797 1.29296875 9.08203125 C1 12 1 12 -0.51171875 13.88671875 C-1.00285156 14.25410156 -1.49398437 14.62148438 -2 15 C-1.85816304 13.24967156 -1.71136571 11.49974466 -1.5625 9.75 C-1.48128906 8.77546875 -1.40007813 7.8009375 -1.31640625 6.796875 C-1.04925416 4.43538247 -0.64628032 2.28098935 0 0 Z " fill="#01123B" transform="translate(601,578)"/>
<path d="M0 0 C0.66 0.33 1.32 0.66 2 1 C1.2890625 2.921875 1.2890625 2.921875 0 5 C-2.1640625 5.828125 -2.1640625 5.828125 -4.625 6.25 C-5.85089844 6.47429688 -5.85089844 6.47429688 -7.1015625 6.703125 C-7.72804688 6.80109375 -8.35453125 6.8990625 -9 7 C-6.28672425 4.15635664 -3.30410823 2.12931419 0 0 Z " fill="#01113F" transform="translate(539,690)"/>
<path d="M0 0 C1.33332095 2.6666419 0.67102033 4.16680303 0 7 C-0.66 7 -1.32 7 -2 7 C-3.37310707 8.29233607 -4.71034824 9.62437146 -6 11 C-4.54955729 6.89041233 -2.48889248 3.56741255 0 0 Z " fill="#01CEF8" transform="translate(443,521)"/>
<path d="M0 0 C3.7952131 1.49097658 5.61042731 3.75700849 8 7 C5 7 5 7 2.3125 4.625 C0 2 0 2 0 0 Z " fill="#272061" transform="translate(675,399)"/>
<path d="M0 0 C-3.55639236 2.30119506 -6.94718288 3.77472971 -11 5 C-4.83050847 -1.61016949 -4.83050847 -1.61016949 0 0 Z " fill="#131459" transform="translate(515,393)"/>
<path d="M0 0 C0.66 0.99 1.32 1.98 2 3 C-3.625 7 -3.625 7 -7 7 C-4.69 4.69 -2.38 2.38 0 0 Z " fill="#04133C" transform="translate(558,674)"/>
<path d="M0 0 C0.99 0.33 1.98 0.66 3 1 C1.63016497 4.16115776 1.0109362 4.9927092 -2 7 C-2 5 -2 3 -2 1 C-1.34 0.67 -0.68 0.34 0 0 Z " fill="#011A4E" transform="translate(514,624)"/>
<path d="M0 0 C3.36720387 1.39332574 4.9859524 2.9789286 7 6 C4 6 4 6 1.8125 4.125 C0 2 0 2 0 0 Z " fill="#2D2263" transform="translate(581,304)"/>
<path d="M0 0 C2.97 0.495 2.97 0.495 6 1 C4.68 2.32 3.36 3.64 2 5 C1.34 4.34 0.68 3.68 0 3 C0 2.01 0 1.02 0 0 Z " fill="#00265D" transform="translate(384,586)"/>
<path d="M0 0 C0 3.69418201 -1.28179295 5.77836178 -3 9 C-3.66 9 -4.32 9 -5 9 C-3.7508258 5.54074837 -2.32472205 2.85306797 0 0 Z " fill="#0E125A" transform="translate(465,433)"/>
</svg>
